<?xml version="1.0" standalone="no"?>
<svg viewBox="0 0 200 200" xmlns="http://www.w3.org/2000/svg">
  <path fill="#E33152" opacity="5%" d="M34.2,-55.3C45.8,-52.4,57.9,-46.4,60.4,-36.7C62.9,-26.9,55.8,-13.5,56.2,0.2C56.6,13.9,64.5,27.9,56.8,28.6C49.2,29.4,25.9,17,13.9,18C1.8,19,0.9,33.3,-7,45.3C-14.8,57.4,-29.6,67.1,-43,66.9C-56.4,66.7,-68.4,56.6,-74.1,43.8C-79.9,31,-79.3,15.5,-69.2,5.8C-59.1,-3.9,-39.6,-7.7,-27.7,-9.8C-15.8,-11.9,-11.5,-12.2,-8.2,-19.9C-4.8,-27.5,-2.4,-42.6,4.4,-50.2C11.3,-57.9,22.5,-58.2,34.2,-55.3Z" transform="translate(100 100)" />
</svg>
