<?xml version="1.0" standalone="no"?>
<svg viewBox="0 0 200 200" xmlns="http://www.w3.org/2000/svg">
  <path fill="#E33152" opacity="5%" d="M32.7,-60.5C40.8,-52,44.6,-40,42.7,-29.3C40.8,-18.7,33,-9.3,25.5,-4.3C18,0.6,10.7,1.3,13.8,14C16.9,26.7,30.5,51.5,29.9,62C29.3,72.5,14.7,68.8,4,61.8C-6.6,54.8,-13.2,44.5,-23.5,39.7C-33.9,34.8,-48,35.3,-50.7,29.6C-53.5,23.9,-44.9,11.9,-39.2,3.3C-33.6,-5.4,-30.9,-10.9,-29.5,-18.8C-28,-26.8,-27.8,-37.2,-23.1,-47.7C-18.4,-58.1,-9.2,-68.6,1.6,-71.3C12.3,-74,24.7,-69,32.7,-60.5Z" transform="translate(100 100)" />
</svg>
