<svg height="152" viewBox="0 0 200 152" width="200" xmlns="http://www.w3.org/2000/svg"><path d="m178.131784 28.3080475 21.868216 23.6919525-100 100-15.5494633-15.552609c48.5203363-39.9198342 79.7474193-75.966282 93.6812473-108.1393435zm-114.6086426 60.0342505 23.9744006 26.604368c-4.6860336 3.293123-9.5545944 6.608246-14.6056822 9.945367l-26.7641003-26.7646396c6.0112954-3.3249657 11.809886-6.5758974 17.3953819-9.7850954zm40.8693956-25.9320871 22.209298 21.8438836c-8.555408 7.6486082-18.184594 15.4266336-28.887557 23.3340765l-23.9408864-25.2383444c11.1443731-6.6418364 21.3519508-13.1893041 30.6191454-19.9396157zm-16.392537-62.4102109 12 16 12-16 39.922901.00084519c-15.129827 30.29477421-53.5985057 59.79985391-115.4060364 88.51523911l-36.5168646-36.5160843 48-52zm48.847049 33.1462286 20.733597 17.9324875c-6.357005 8.5991697-14.21849 17.379667-23.584453 26.3414918l-21.736381-20.9745251c9.258959-7.3212951 17.456137-14.9691163 24.587237-23.2994542zm18.976937-29.00370265 17.406837 18.85588035c-2.57014 7.0137998-6.242335 14.1604248-11.016585 21.4398752l-20.450682-17.3687136c5.39597-7.0687671 10.083555-14.6469327 14.06043-22.92704195z" fill="#f7004e" fill-rule="evenodd"/></svg>