<?xml version="1.0" encoding="UTF-8" standalone="no"?>
<svg xmlns:dc="http://purl.org/dc/elements/1.1/" xmlns:cc="http://creativecommons.org/ns#" xmlns:rdf="http://www.w3.org/1999/02/22-rdf-syntax-ns#" xmlns:svg="http://www.w3.org/2000/svg" xmlns="http://www.w3.org/2000/svg" height="250.59264" width="1527.1926" xml:space="preserve" viewBox="0 0 1527.1926 250.59264" y="0px" x="0px" id="Layer_1" version="1.1"><metadata id="metadata35"><rdf:RDF><cc:Work rdf:about=""><dc:format>image/svg+xml</dc:format><dc:type rdf:resource="http://purl.org/dc/dcmitype/StillImage"/><dc:title/></cc:Work></rdf:RDF></metadata><defs id="defs33"/>
<style id="style2" type="text/css">
	.st0{fill:#0A3734;}
	.st1{fill:#00919B;}
	.st2{fill:#FF5F5A;}
</style>
<path style="fill:#0a3734" id="path4" d="m 1451.8,152.99264 -13.2,-7.7 c -2.3,-1.3 -3.1,-4.3 -1.7,-6.6 l 53.7,-92.5 c 1.3,-2.3 4.3,-3.1 6.6,-1.7 l 13.2,7.7 c 2.3,1.3 3.1,4.3 1.7,6.6 l -53.7,92.5 c -1.4,2.3 -4.3,3 -6.6,1.7" class="st0"/>
<path style="fill:#00919b" id="path6" d="m 1409.4,250.49264 c -12.3,0 -24.5,-3.3 -35.5,-9.6 -19.3,-11.2 -31.9,-30.5 -34.7,-52.4 -0.4,-3.2 2,-6.1 5.2,-6.2 l 13.9,-0.6 c 2.8,-0.1 5.2,1.9 5.6,4.7 2,13.8 10.1,25.9 22.3,33 10.7,6.2 23.1,7.9 34.9,4.7 11.8,-3.2 21.8,-10.8 28,-21.4 l 55.9,-96.6 c 1.3,-2.3 4.3,-3.1 6.6,-1.8 l 13.2,7.6 c 2.3,1.3 3.1,4.3 1.7,6.6 l -55.9,96.6 c -9.5,16.4 -24.8,28.1 -43.1,33 -5.9,1.6 -12,2.4 -18.1,2.4" class="st1"/>
<path style="fill:#0a3734" id="path8" d="m 1403.3,151.99264 -13.2,-7.6 c -2.3,-1.3 -3.1,-4.3 -1.8,-6.6 L 1462.8,8.7926397 c 1.3,-2.3 4.3,-3.1 6.6,-1.8 l 13.2,7.6000003 c 2.3,1.3 3.1,4.3 1.8,6.6 l -74.5,129 c -1.4,2.3 -4.3,3.1 -6.6,1.8" class="st0"/>
<path style="fill:#ff5f5a" id="path10" d="m 1334.5,151.19264 -25,-42 c -1.4,-2.3 -0.6,-5.2 1.7,-6.6 l 13.1,-7.8 c 2.3,-1.4 5.2,-0.6 6.6,1.7 l 16.2,27.1 70.4,-121.2000003 c 1.3,-2.30000001 4.3,-3.10000001 6.6,-1.70000001 l 13.2,7.70000001 c 2.3,1.3 3.1,4.3000003 1.7,6.6000003 l -79,136.1 c -1.2,2.1 -3.4,3.3 -5.8,3.3 l -13.7,0.1 c -2.6,0 -4.8,-1.2 -6,-3.3" class="st2"/>
<path style="fill:#0a3734" id="path12" d="m 34.3,250.49264 c -21.3,0 -34.3,-12.8 -34.3,-36.5 v -164.8 c 0,-2.2 1.8,-4 4,-4 h 18.2 c 2.2,0 4,1.8 4,4 v 156.6 c 0,13.9 3.3,20.2 16.1,20.2 0.7,0 1.6,0 2.5,0 2.2,-0.1 4,1.7 4,3.9 v 15.6 c 0,1.9 -1.3,3.5 -3.1,3.9 -3.6,0.6 -7.3,1.1 -11.4,1.1" class="st0"/>
<path style="fill:#0a3734" id="path14" d="m 127.1,138.99264 c -20.2,0 -35.2,13.6 -39.8,31.9 h 79 c -2.9,-18 -18.7,-31.9 -39.2,-31.9 m 1.4,87.8 c 12.9,0 25.7,-5.2 34,-14.8 1.3,-1.6 3.7,-1.8 5.3,-0.5 l 12.4,9.5 c 1.8,1.4 2,3.9 0.6,5.6 -12.2,15 -31.4,24 -52.3,24 -37.6,0 -67.9,-29.4 -67.9,-67.6 0,-36.2 27.5,-67.9 66.2,-67.9 38.4,0 66.2,31.3 66.2,67.6 0,2 -0.1,3.7 -0.2,5.4 -0.2,2.1 -1.9,3.6 -3.9,3.6 H 86.5 c 3.6,19.8 19.9,35.1 42,35.1" class="st0"/>
<path style="fill:#0a3734" id="path16" d="m 304.9,179.09264 c 0,-25.9 -10.1,-39.2 -31.6,-39.2 -22.4,0 -33,14.4 -33,41.2 v 62 c 0,2.2 -1.8,4 -4,4 h -18.2 c -2.2,0 -4,-1.8 -4,-4 v -121.6 c 0,-2.2 1.8,-4 4,-4 h 18.2 c 2.2,0 4,1.8 4,4 v 9.9 c 8.7,-9.8 19.4,-16.4 37.6,-16.4 30.8,0 53.4,18 53.4,58.6 v 69.4 c 0,2.2 -1.8,4 -4,4 h -18.5 c -2.2,0 -4,-1.8 -4,-4 v -63.9 z" class="st0"/>
<path style="fill:#0a3734" id="path18" d="m 421,139.79264 c -24.3,0 -42.5,19.1 -42.5,43.1 0,24.3 18.3,43.1 42.5,43.1 24.8,0 42.8,-19.6 42.8,-43.1 0,-23.5 -18.3,-43.1 -42.8,-43.1 m 43.3,91.9 c -10.9,12.8 -25.9,18.8 -43.3,18.8 -38.4,0 -68.4,-29.7 -68.4,-67.6 0,-38.4 30.5,-67.9 68.4,-67.9 17.4,0 32.2,6.3 43.3,19.1 v -84.9 c 0,-2.2 1.8,-4 4,-4 h 18.2 c 2.2,0 4,1.8 4,4 v 193.8 c 0,2.2 -1.8,4 -4,4 h -18.2 c -2.2,0 -4,-1.8 -4,-4 z" class="st0"/>
<path style="fill:#0a3734" id="path20" d="m 579.7,139.79264 c -24.3,0 -42.5,19.1 -42.5,43.1 0,24.3 18.3,43.1 42.5,43.1 24.8,0 42.8,-19.6 42.8,-43.1 0,-23.5 -18.2,-43.1 -42.8,-43.1 m 43.4,91.9 c -10.9,12.8 -25.9,18.8 -43.3,18.8 -38.4,0 -68.4,-29.7 -68.4,-67.6 0,-38.4 30.5,-67.9 68.4,-67.9 17.4,0 32.2,6.3 43.3,19.1 v -12.7 c 0,-2.2 1.8,-4 4,-4 h 18.2 c 2.2,0 4,1.8 4,4 v 121.5 c 0,2.2 -1.8,4 -4,4 h -18.2 c -2.2,0 -4,-1.8 -4,-4 z" class="st0"/>
<path style="fill:#0a3734" id="path22" d="m 766.8,179.09264 c 0,-25.9 -10.1,-39.2 -31.6,-39.2 -22.4,0 -33,14.4 -33,41.2 v 62 c 0,2.2 -1.8,4 -4,4 H 680 c -2.2,0 -4,-1.8 -4,-4 v -193.9 c 0,-2.2 1.8,-4 4,-4 h 18.2 c 2.2,0 4,1.8 4,4 v 82.2 c 8.7,-9.8 19.4,-16.4 37.6,-16.4 30.8,0 53.4,18 53.4,58.6 v 69.4 c 0,2.2 -1.8,4 -4,4 h -18.5 c -2.2,0 -4,-1.8 -4,-4 v -63.9 z" class="st0"/>
<path style="fill:#0a3734" id="path24" d="m 882.8,139.79264 c -24.3,0 -42.5,19.1 -42.5,43.1 0,24.3 18.3,43.1 42.5,43.1 24.8,0 42.8,-19.6 42.8,-43.1 0,-23.5 -18.3,-43.1 -42.8,-43.1 m 43.3,91.9 c -10.9,12.8 -25.9,18.8 -43.3,18.8 -38.4,0 -68.4,-29.7 -68.4,-67.6 0,-38.4 30.5,-67.9 68.4,-67.9 17.4,0 32.2,6.3 43.3,19.1 v -12.7 c 0,-2.2 1.8,-4 4,-4 h 18.2 c 2.2,0 4,1.8 4,4 v 121.5 c 0,2.2 -1.8,4 -4,4 h -18.2 c -2.2,0 -4,-1.8 -4,-4 z" class="st0"/>
<path style="fill:#0a3734" id="path26" d="m 1069.7,179.09264 c 0,-25.9 -10.1,-39.2 -31.6,-39.2 -22.4,0 -33,14.4 -33,41.2 v 62 c 0,2.2 -1.8,4 -4,4 h -18.2 c -2.2,0 -4,-1.8 -4,-4 v -121.6 c 0,-2.2 1.8,-4 4,-4 h 18.2 c 2.2,0 4,1.8 4,4 v 9.9 c 8.7,-9.8 19.4,-16.4 37.6,-16.4 30.8,0 53.4,18 53.4,58.6 v 69.4 c 0,2.2 -1.8,4 -4,4 h -18.5 c -2.2,0 -4,-1.8 -4,-4 v -63.9 z" class="st0"/>
<path style="fill:#0a3734" id="path28" d="m 1185.7,139.79264 c -24.3,0 -42.5,19.1 -42.5,43.1 0,24.3 18.3,43.1 42.5,43.1 24.8,0 42.8,-19.6 42.8,-43.1 0,-23.5 -18.3,-43.1 -42.8,-43.1 m 43.3,91.9 c -10.9,12.8 -25.9,18.8 -43.3,18.8 -38.4,0 -68.4,-29.7 -68.4,-67.6 0,-38.4 30.5,-67.9 68.4,-67.9 17.4,0 32.2,6.3 43.3,19.1 v -84.9 c 0,-2.2 1.8,-4 4,-4 h 18.2 c 2.2,0 4,1.8 4,4 v 193.8 c 0,2.2 -1.8,4 -4,4 H 1233 c -2.2,0 -4,-1.8 -4,-4 z" class="st0"/>
</svg>