<?xml version="1.0" encoding="UTF-8"?>
<svg width="410px" height="152px" viewBox="0 0 410 152" version="1.1" xmlns="http://www.w3.org/2000/svg" xmlns:xlink="http://www.w3.org/1999/xlink">
    <title>Logo - Ruby</title>
    <g id="Logo---Ruby" stroke="none" stroke-width="1" fill="none" fill-rule="evenodd">
        <g id="Logo" fill="#F7004E">
            <g id="Brandmark">
                <path d="M178.131784,28.3080475 L200,52 L100,152 L84.4505367,136.447391 C132.970873,96.5275568 164.197956,60.481109 178.131784,28.3080475 Z M63.5231414,88.342298 L87.497542,114.946666 C82.8115084,118.239789 77.9429476,121.554912 72.8918598,124.892033 L46.1277595,98.1273934 C52.1390549,94.8024277 57.9376455,91.551496 63.5231414,88.342298 L63.5231414,88.342298 Z M104.392537,62.4102109 L126.601835,84.2540945 C118.046427,91.9027027 108.417241,99.6807281 97.714278,107.588171 L97.714278,107.588171 L73.7733916,82.3498266 C84.9177647,75.7079902 95.1253424,69.1605225 104.392537,62.4102109 L104.392537,62.4102109 Z M88,0 L100,16 L112,0 L151.922901,0.000845191065 C136.793074,30.2956194 98.3243953,59.8006991 36.5168646,88.5160843 L0,52 L48,0 L88,0 Z M136.847049,33.1462286 L157.580646,51.0787161 C151.223641,59.6778858 143.362156,68.4583831 133.996193,77.4202079 L133.996193,77.4202079 L112.259812,56.4456828 C121.518771,49.1243877 129.715949,41.4765665 136.847049,33.1462286 L136.847049,33.1462286 Z M155.823986,4.14252595 L173.230823,22.9984063 C170.660683,30.0122061 166.988488,37.1588311 162.214238,44.4382815 L162.214238,44.4382815 L141.763556,27.0695679 C147.159526,20.0008008 151.847111,12.4226352 155.823986,4.14252595 Z"></path>
            </g>
            <g id="Logotype" transform="translate(232.000000, 5.000000)">
                <path d="M1.90078106,47.090346 C3.00984078,47.0729919 5.17019669,47.0633508 8.38184879,47.0614225 L10.1878947,47.0607954 C13.8305335,47.0572537 16.6730295,47.0182955 18.7153827,46.9439208 C18.949325,46.9048741 19.0955389,46.7877339 19.1540245,46.5925003 L19.1540245,46.5925003 L19.1540245,41.2333378 L19.1247817,40.2962165 L19.1247817,31.393564 L20.6746494,31.393564 L21.0548056,31.364279 C22.7118968,31.364279 23.8767344,31.7352228 24.5493185,32.4771105 C25.2219025,33.2189982 25.5971849,34.6637269 25.6751657,36.8112966 L25.6751657,36.8112966 L25.8213796,38.0705534 C26.5037113,43.8299448 27.1470526,46.7096405 27.7514035,46.7096405 L27.7514035,46.7096405 L27.9268602,46.7096405 C30.0323407,46.8072573 32.4546181,46.8560657 35.1936924,46.8560657 C37.9327666,46.8560657 40.9593949,46.7486872 44.2735773,46.5339303 L44.2735773,46.5339303 L44.3905484,46.4460751 C44.1566061,45.6651407 43.8836735,44.3961223 43.5717504,42.6390198 L43.5717504,42.6390198 L43.2793226,41.1454827 C43.2013418,40.6378753 43.0989921,39.6421839 42.9722733,38.1584085 C42.8455546,36.6746331 42.6749717,35.3568062 42.4605246,34.204928 C41.5442506,28.9336206 38.9221475,25.6146493 34.5942153,24.248014 C37.3235419,22.9399488 39.3997797,21.4220075 40.8229286,19.6941901 C42.2460775,17.9663727 42.9576519,15.8822539 42.9576519,13.4418338 C42.9576519,9.92762892 41.8220571,7.2041201 39.5508674,5.27130739 C37.2796778,3.33849468 33.9703692,2.31351824 29.6229417,2.19637808 C28.0048409,2.11828464 26.2015358,2.07923792 24.2130264,2.07923792 L24.2130264,2.07923792 L14.8260923,2.16709304 L10.7905879,2.22566312 L7.0767541,2.19637808 L5.29294418,2.19637808 L3.42140591,2.16709304 C2.31018006,2.16709304 1.75456713,2.24518648 1.75456713,2.40137337 C1.68322303,8.09928696 1.64451506,11.1907082 1.63844322,11.675637 L1.63759599,11.7433015 L1.72532435,18.3910058 L1.69608156,19.3866972 L1.66683878,26.9715228 L1.63759599,29.1679009 L1.63759599,31.3057089 L1.52062485,43.4590009 L1.54986763,44.3375522 L1.49138206,46.9732059 C1.56936282,47.031776 1.62784839,47.061061 1.66683878,47.061061 L1.66683878,47.061061 L1.72532435,47.031776 L1.90078106,47.090346 Z M19.0955389,21.8759257 C18.998063,20.8607109 18.949325,18.8644473 18.949325,15.8871348 C18.949325,12.9098223 19.0565486,11.2649791 19.2709957,10.9526054 L19.2709957,10.9526054 L20.9670772,10.9526054 C22.9165963,10.9526054 24.4762115,11.206409 25.6459229,11.7140164 C27.3809948,12.5339976 28.2485308,13.8127777 28.2485308,15.5503568 C28.2485308,19.6307392 25.1975335,21.7392622 19.0955389,21.8759257 Z M56.8843197,47.2660563 C57.0500288,47.2660563 58.2441092,47.0805844 60.4665609,46.7096405 C61.9676906,46.5144069 64.1608995,45.7139491 67.0461876,44.3082671 C67.3386155,44.3082671 67.7918787,43.9714892 68.4059772,43.2979332 C69.0200757,42.6243773 69.4538437,42.0240339 69.7072811,41.4969032 C70.2726416,43.5273327 70.867245,45.1282483 71.491091,46.2996499 C71.90049,46.2801266 72.4950933,46.2703649 73.274901,46.2703649 L73.274901,46.2703649 L74.3276412,46.2996499 L87.5453803,46.2996499 L87.2529524,45.655379 C86.6875919,43.9958934 86.4049117,42.2387909 86.4049117,40.3840716 L86.4049117,40.3840716 L86.4049117,39.7690858 L86.4341544,39.5055204 C86.4341544,39.3298102 86.4049117,39.1931466 86.3464261,39.0955298 L86.3464261,39.0955298 L86.3464261,38.8319645 L86.4049117,36.8405817 C86.4049117,36.5477313 86.3951641,36.3817827 86.3756689,36.342736 L86.3756689,36.342736 L86.3756689,32.9456712 L86.5218828,30.9250034 C86.5218828,30.5540595 86.4536496,30.1440689 86.3171833,29.6950316 C86.3171833,26.9617611 86.1027362,24.4725327 85.673842,22.2273462 C84.6600921,16.9169921 81.774804,13.3246937 77.0179775,11.4504511 C75.6143238,10.903797 74.4446124,10.567019 73.5088432,10.4401171 C72.5730741,10.3132153 71.9589756,10.2497644 71.6665478,10.2497644 C71.3741199,10.2497644 71.1596728,10.2400027 71.0232065,10.2204793 L71.0232065,10.2204793 L70.1751657,10.1033392 C69.2199014,9.96667564 68.6058029,9.89834388 68.3328702,9.89834388 L68.3328702,9.89834388 L67.0169449,9.95691396 L66.6367886,9.95691396 C66.5198175,9.89834388 66.4028464,9.86905884 66.2858752,9.86905884 L66.2858752,9.86905884 L65.3501061,9.95691396 L63.5955389,10.0447691 C60.3398422,10.1619093 57.0597764,10.8793928 53.7553416,12.1972196 C50.4509069,13.5150465 48.2235814,15.6772587 47.0733651,18.6838562 C46.4690142,20.2457251 46.1181008,21.7002154 46.0206248,23.0473273 L46.0206248,23.0473273 L61.33599,23.0478114 C62.0634345,23.0510384 62.5290634,23.0704004 62.7328768,23.1058974 C62.9570715,23.1449441 63.1179068,23.086374 63.2153827,22.9301872 C63.2153827,19.7478794 64.1511519,18.1567255 66.0226901,18.1567255 L66.0226901,18.1567255 L66.1689041,18.1567255 C66.9292165,18.1567255 67.5871792,18.4593376 68.1427921,19.0645617 C68.698405,19.6697859 68.9762115,20.2457251 68.9762115,20.7923792 C68.9762115,21.3390333 69.0346971,21.7099771 69.1516682,21.9052107 C69.1516682,22.8618554 69.0152019,23.6525515 68.7422692,24.277299 C68.1964039,25.5267941 66.5783031,26.2491585 63.8879668,26.4443921 L63.8879668,26.4443921 L62.3088564,26.6493874 C61.9384478,26.7470042 61.4218252,26.7958126 60.7589888,26.7958126 L60.7589888,26.7958126 L60.0571619,26.7958126 L59.764734,26.7665275 L58.4195659,26.9715228 L57.454554,27.0593779 C54.2183524,27.3522284 52.0348911,27.6353171 50.90417,27.9086441 C46.498257,28.982429 44.2953005,31.8914097 44.2953005,36.6355864 C44.2953005,38.8222028 44.8899038,40.7452538 46.0791104,42.4047395 C48.4575236,45.6456173 51.9764055,47.2660563 56.635756,47.2660563 L56.635756,47.2660563 L56.8843197,47.2660563 Z M66.1396613,38.1291235 C65.4573296,38.1291235 64.8286097,37.7581796 64.2535016,37.0162919 C63.6783935,36.2744042 63.3908395,35.4544231 63.3908395,34.5563485 C63.3908395,33.6582739 63.5906652,32.950552 63.9903166,32.433183 C64.389968,31.9158139 64.8334835,31.5546317 65.3208633,31.3496365 C65.8082431,31.1446412 66.4613319,30.8957183 67.2801299,30.6028679 C68.0989279,30.3100175 68.722774,30.0464521 69.1516682,29.8121718 C69.3076297,30.7102464 69.3856105,31.6473677 69.3856105,32.6235357 L69.3856105,32.6235357 L69.3563677,33.5606571 L69.3563677,34.4392083 L69.3271249,36.2548808 L69.2686393,36.5477313 C68.6447933,37.6019927 67.6018006,38.1291235 66.1396613,38.1291235 Z M108.387967,8.02410125 L108.358724,0 L90.2866826,0.0585700821 L90.3159253,4.01205063 C90.3549157,4.81250842 90.3744109,6.14985862 90.3744109,8.02410125 L90.3744109,8.02410125 L108.387967,8.02410125 Z M95.813569,46.35822 L97.041766,46.2410798 L107.68614,46.2410798 L108.21251,46.1825098 C108.270996,46.143463 108.339229,45.5675239 108.41721,44.4546923 C108.49519,43.3418608 108.534181,42.3852161 108.534181,41.5847583 L108.534181,41.5847583 L108.504938,37.1920022 L108.475695,36.9284368 L108.475695,36.0206005 C108.49519,35.9620304 108.504938,35.9229837 108.504938,35.9034603 L108.504938,35.9034603 L108.504938,34.9956241 L108.41721,33.4435169 L108.41721,31.8914097 L108.446452,28.2307796 C108.446452,26.9422378 108.41721,24.7409789 108.358724,21.6270028 C108.300238,18.5130268 108.261248,16.0286791 108.241753,14.1739599 L108.241753,14.1739599 L108.21251,11.391881 C108.21251,11.2747408 108.193015,11.2161707 108.154025,11.2161707 C108.115034,11.2161707 108.056549,11.2259324 107.978568,11.2454558 L107.978568,11.2454558 L98.0067779,11.1283156 L97.5681362,11.1576006 L95.4626556,11.1576006 L95.0824994,11.1868857 L94.3514298,11.1576006 L93.503389,11.1576006 L93.0062616,11.1283156 L90.7253243,11.1576006 L90.7253243,12.0361519 L90.4036537,34.5856335 C90.2866826,37.1236704 90.228197,40.3157399 90.228197,44.1618419 L90.228197,44.1618419 L90.228197,45.4796688 L90.2574398,46.0360846 L90.2574398,46.2410798 C90.9202762,46.3191733 92.7723193,46.35822 95.813569,46.35822 L95.813569,46.35822 Z M129.727681,46.2410798 L129.727681,0.26356537 C125.336764,0.227522242 122.00897,0.208114404 119.744298,0.204995287 L119.200278,0.204995287 L111.77261,0.234280329 L111.831096,46.2410798 L129.727681,46.2410798 Z M156.711252,47.2660563 C158.563295,47.2660563 159.908463,47.1293928 160.746757,46.8560657 C162.130915,46.8560657 163.768511,46.5827387 165.659545,46.0360846 L165.659545,46.0360846 L166.653799,45.8018042 C167.004713,45.7627575 167.29714,45.6846641 167.531083,45.5675239 C170.513847,44.5913559 172.979988,43.0148445 174.929508,40.8379898 C176.879027,38.661135 177.902524,36.1670257 178,33.3556618 C177.766058,30.7981015 177.210445,28.8457655 176.333161,27.4986536 C175.845781,26.9129527 175.455878,26.5517706 175.16345,26.415107 C173.701311,25.1460886 172.302531,24.3114649 170.96711,23.911236 C169.63169,23.5110071 168.096443,23.1937525 166.361371,22.9594722 C165.386612,22.842332 164.582435,22.7300727 163.948842,22.6226942 C163.315248,22.5153157 162.379479,22.4225798 161.141534,22.3444863 C159.90359,22.2663929 158.821606,22.1882994 157.895585,22.110206 C156.969563,22.0321126 156.038668,21.8808065 155.102899,21.6562879 C154.16713,21.4317692 153.440934,21.0461828 152.924311,20.4995287 C152.407689,19.9528746 152.149378,19.3378888 152.149378,18.6545712 C152.149378,17.9712535 152.42231,17.439242 152.968176,17.0585364 C153.514041,16.6778309 154.215868,16.4874781 155.073656,16.4874781 C155.931445,16.4874781 156.716126,16.7119968 157.4277,17.1610341 C158.139275,17.6100714 158.612033,18.1567255 158.845975,18.8009964 C162.160158,18.7619496 164.606804,18.7424263 166.185915,18.7424263 L166.185915,18.7424263 L168.847008,18.7717113 L175.280421,18.4788609 L175.48512,18.537431 C175.251178,16.9169921 174.33003,15.4136933 172.721677,14.0275347 C171.113324,12.6413761 169.42699,11.7091356 167.662675,11.2308132 C165.898361,10.7524909 163.856239,10.4254746 161.536312,10.2497644 C160.600543,10.1911943 160.035182,10.1521476 159.84023,10.1326242 L159.84023,10.1326242 L154.6935,9.89834388 L150.979666,10.1033392 C150.862695,10.0642924 150.628753,10.0447691 150.277839,10.0447691 C149.926926,10.0447691 149.283585,10.1472667 148.347815,10.352262 C147.412046,10.5572573 146.690724,10.6988017 146.183849,10.7768951 C141.193081,11.421166 137.58647,12.8073246 135.364019,14.9353709 C133.589956,16.6534267 132.702925,19.0840851 132.702925,22.2273462 C132.702925,25.7415511 134.174812,28.4162515 137.118586,30.2514474 C137.722937,30.6223913 138.434511,30.9640501 139.253309,31.2764239 C140.072107,31.5887976 140.837293,31.8377205 141.548868,32.0231924 C142.260442,32.2086643 143.07924,32.3892554 144.005262,32.5649657 C144.931283,32.7406759 145.740334,32.8724586 146.432413,32.9603137 C147.124492,33.0481688 147.928669,33.1555473 148.844943,33.2824492 C149.761217,33.409351 150.453296,33.5118487 150.921181,33.5899421 C151.389065,33.6680355 152.110387,33.746129 153.085147,33.8242224 C154.059906,33.9023159 154.854335,33.9950518 155.468434,34.1024303 C156.082532,34.2098088 156.750243,34.3806382 157.471565,34.6149185 C158.192887,34.8491989 158.738752,35.2055002 159.109161,35.6838225 C159.479569,36.1621449 159.664773,36.7576074 159.664773,37.47021 C159.664773,38.1828127 159.333355,38.7636327 158.670519,39.21267 C158.007682,39.6617073 157.101156,39.8862259 155.95094,39.8862259 C154.800723,39.8862259 153.786974,39.6128989 152.90969,39.0662448 C152.032406,38.5195907 151.593765,37.8167497 151.593765,36.9577218 C151.593765,36.6843948 151.603512,36.4891612 151.623007,36.372021 C150.004907,36.372021 147.631367,36.3866635 144.502389,36.4159486 C141.373411,36.4452336 138.892648,36.4598761 137.0601,36.4598761 C135.227552,36.4598761 133.794656,36.4208294 132.761411,36.342736 C132.780906,40.8526323 136.465497,44.0154167 143.815184,45.8310893 L143.815184,45.8310893 L143.815184,45.8018042 C147.265832,46.7779723 150.502034,47.2660563 153.523789,47.2660563 L153.523789,47.2660563 L153.845459,47.2367712 L155.980182,47.2367712 L156.711252,47.2660563 Z M25.1195528,116 C25.3534951,116 26.2502738,115.951192 27.809889,115.853575 L27.809889,115.853575 L29.3012711,115.76572 C29.4572326,115.785243 30.2029237,115.795005 31.5383442,115.795005 C32.8737647,115.795005 35.3204111,115.502154 38.8782834,114.916453 C42.4361556,114.330753 44.6732287,113.686482 45.5895026,112.983641 C45.6089978,112.964117 45.6187454,112.934832 45.6187454,112.895786 L45.6187454,112.895786 L45.6187454,112.837216 L45.5895026,112.837216 L45.677231,112.602935 C45.6577358,112.544365 45.6479882,112.505318 45.6479882,112.485795 L45.6479882,112.485795 L45.6479882,112.075804 L45.9989016,89.8484583 C45.5115219,89.399421 43.5327601,89.1749024 40.0626162,89.1749024 L40.0626162,89.1749024 L39.3900321,89.2041874 L37.4153981,89.2038886 C36.4313883,89.2012988 35.0523523,89.181875 33.2782899,89.1456173 L33.2782899,89.1456173 L32.9858621,89.1456173 C30.8803815,89.1065706 28.9796005,89.0870473 27.2835189,89.0870473 L27.2835189,89.0870473 L25.3242523,89.0870473 C24.8563677,89.4189444 24.6224254,89.7508415 24.6224254,90.0827387 L24.6224254,90.0827387 L24.6224254,96.6425879 C24.6224254,97.3649522 24.6419206,97.8920829 24.680911,98.2239801 L24.680911,98.2239801 L25.4119806,98.9853911 L25.7628941,98.9561061 L28.8041437,98.9561061 L29.0965716,98.8096809 L31.2020522,98.9853911 L31.0558382,103.612428 C29.3597567,104.178605 27.571073,104.461694 25.6897871,104.461694 C23.8085012,104.461694 22.4243427,104.251818 21.5373115,103.832065 C20.6502804,103.412313 19.8266086,102.665545 19.0662962,101.59176 C18.8518491,101.279386 18.6666448,100.825468 18.5106832,100.230005 C18.3547217,99.6345429 18.2182554,99.0878888 18.1012842,98.5900431 C17.9843131,98.0921974 17.9258275,97.2087653 17.9258275,95.9397469 L17.9258275,95.9397469 L17.9258275,93.919079 C17.9258275,93.7824155 17.9160799,93.5042076 17.8965847,93.0844554 C17.8770896,92.6647031 17.8819634,92.1326915 17.9112061,91.4884206 C17.9404489,90.8441497 17.9696917,90.1705938 17.9989345,89.4677528 C18.0281773,88.7649118 18.1110318,88.0523091 18.2474982,87.3299448 C18.3839645,86.6075804 18.539926,85.9047395 18.7153827,85.2214218 C18.8908395,84.5381042 19.1540245,83.8987142 19.5049379,83.3032516 C19.8558514,82.7077891 20.2555028,82.1855392 20.7038922,81.736502 C21.1522815,81.2874647 21.7127683,80.9360442 22.3853523,80.6822405 C23.0579364,80.4284368 23.7743846,80.3015349 24.5346971,80.3015349 C25.2950095,80.3015349 25.909108,80.3893901 26.3769925,80.5651003 C27.4102376,80.9165208 28.1023169,81.8829272 28.4532303,83.4643194 L28.4532303,83.4643194 L28.4532303,83.3764643 C28.5702015,83.8645483 28.6676774,84.1281136 28.7456582,84.1671604 L28.7456582,84.1671604 L43.6009932,84.4307257 C44.3223153,84.4307257 44.7414619,84.2843005 44.858433,83.9914501 C44.7804522,83.4838427 44.6878501,82.6882658 44.5806265,81.6047193 C44.473403,80.5211727 44.3808008,79.7255958 44.3028201,79.2179884 C43.8739259,77.3827925 42.9625257,75.7086643 41.5686196,74.1956039 C40.1747135,72.6825434 38.5030009,71.5257843 36.5534819,70.7253265 C34.9548763,70.1981958 33.0979594,69.7979669 30.9827313,69.5246398 C28.8675031,69.2513128 27.088567,69.1146493 25.6459229,69.1146493 C17.769866,69.1146493 11.5265313,71.076747 6.91591878,75.0009425 C2.30530626,78.925138 0,84.6796486 0,92.2644742 C0,99.8492999 2.13959714,105.701427 6.41879142,109.820856 C10.6979857,113.940285 16.9315728,116 25.1195528,116 Z M66.6952742,75.9966339 L66.6660314,67.9725327 L48.59399,68.0311027 L48.6232328,71.9845833 C48.6622231,72.7850411 48.6817183,74.1223913 48.6817183,75.9966339 L48.6817183,75.9966339 L66.6952742,75.9966339 Z M54.1208764,114.330753 L55.3490734,114.213612 L65.9934474,114.213612 L66.5198175,114.155042 C66.5783031,114.115996 66.6465362,113.540057 66.724517,112.427225 C66.8024978,111.314393 66.8414881,110.357749 66.8414881,109.557291 L66.8414881,109.557291 L66.8122454,105.164535 L66.7830026,104.900969 L66.7830026,103.993133 C66.8024978,103.934563 66.8122454,103.895516 66.8122454,103.875993 L66.8122454,103.875993 L66.8122454,102.968157 L66.724517,101.41605 L66.724517,99.8639424 L66.7537598,96.2033122 C66.7537598,94.9147704 66.724517,92.7135115 66.6660314,89.5995355 C66.6075459,86.4855594 66.5685555,84.0012118 66.5490603,82.1464925 L66.5490603,82.1464925 L66.5198175,79.3644136 C66.5198175,79.2472735 66.5003223,79.1887034 66.4613319,79.1887034 C66.4223416,79.1887034 66.363856,79.1984651 66.2858752,79.2179884 L66.2858752,79.2179884 L56.3140854,79.1008483 L55.8754436,79.1301333 L53.769963,79.1301333 L53.3898068,79.1594183 L52.6587372,79.1301333 L51.8106964,79.1301333 L51.313569,79.1008483 L49.0326318,79.1301333 L49.0326318,80.0086845 L48.7109611,102.558166 C48.59399,105.096203 48.5355044,108.288273 48.5355044,112.134375 L48.5355044,112.134375 L48.5355044,113.452201 L48.5647472,114.008617 L48.5647472,114.213612 C49.2275837,114.291706 51.0796267,114.330753 54.1208764,114.330753 L54.1208764,114.330753 Z M79.9639793,114.213612 L90.3744109,114.184327 L90.3744109,108.79588 L90.3159253,105.720951 C90.3159253,101.855325 91.0372474,98.9561061 92.4798915,97.0232934 C92.947776,96.3985458 93.4985152,95.8860576 94.1321089,95.4858287 C94.7657025,95.0855998 95.5455102,94.7585835 96.4715317,94.5047799 C97.3975532,94.2509762 98.2992058,94.1240743 99.1764894,94.1240743 C100.053773,94.1240743 100.697114,94.1728827 101.106513,94.2704995 L101.106513,94.2704995 L101.106513,77.9294466 L100.02453,77.9294466 C99.9270542,77.8903999 99.7321023,77.8708765 99.4396744,77.8708765 C98.0555159,77.8903999 96.4081723,78.2808671 94.4976437,79.0422782 L94.4976437,79.0422782 L93.8250596,79.3058435 L93.9420308,79.2765585 C93.2986895,79.5889323 92.947776,79.8036892 92.8892905,79.9208294 L92.8892905,79.9208294 L91.7195791,80.5943854 C89.6725841,82.0000673 88.2884256,84.3721556 87.5671035,87.7106503 L87.5671035,87.7106503 L86.543606,87.7106503 C86.4656253,87.3397065 86.2024402,85.7778376 85.7540508,83.0250438 L85.7540508,83.0250438 L85.1107095,79.1008483 L77.3321286,79.1008483 L69.5535476,79.1301333 L69.5535476,96.730443 L69.5827904,114.213612 L79.9639793,114.213612 Z M121.861371,114.213612 L121.861371,68.236098 C117.470455,68.2000549 114.14266,68.1806471 111.877988,68.1775279 L111.333969,68.1775279 L103.906301,68.206813 L103.964787,114.213612 L121.861371,114.213612 Z M148.844943,115.238589 C150.696986,115.238589 152.042154,115.101925 152.880447,114.828598 C154.264606,114.828598 155.902202,114.555271 157.793235,114.008617 L157.793235,114.008617 L158.78749,113.774337 C159.138403,113.73529 159.430831,113.657197 159.664773,113.540057 C162.647538,112.563889 165.113679,110.987377 167.063198,108.810522 C169.012717,106.633668 170.036215,104.139558 170.133691,101.328194 C169.899748,98.7706342 169.344135,96.8182981 168.466852,95.4711862 C167.979472,94.8854854 167.589568,94.5243032 167.29714,94.3876397 C165.835001,93.1186212 164.436221,92.2839976 163.100801,91.8837687 C161.76538,91.4835398 160.230134,91.1662852 158.495062,90.9320048 C157.520303,90.8148647 156.716126,90.7026054 156.082532,90.5952269 C155.448939,90.4878484 154.513169,90.3951124 153.275225,90.317019 C152.03728,90.2389255 150.955297,90.1608321 150.029276,90.0827387 C149.103254,90.0046452 148.172359,89.8533392 147.23659,89.6288205 C146.30082,89.4043019 145.574625,89.0187155 145.058002,88.4720614 C144.54138,87.9254073 144.283068,87.3104214 144.283068,86.6271038 C144.283068,85.9437862 144.556001,85.4117746 145.101866,85.0310691 C145.647732,84.6503635 146.349558,84.4600108 147.207347,84.4600108 C148.065135,84.4600108 148.849817,84.6845294 149.561391,85.1335667 C150.272966,85.582604 150.745724,86.1292581 150.979666,86.773529 C154.293849,86.7344823 156.740495,86.7149589 158.319605,86.7149589 L158.319605,86.7149589 L160.980699,86.744244 L167.414112,86.4513936 L167.618811,86.5099636 C167.384869,84.8895247 166.463721,83.3862259 164.855368,82.0000673 C163.247015,80.6139087 161.560681,79.6816682 159.796366,79.2033459 C158.032051,78.7250236 155.98993,78.3980073 153.670002,78.222297 C152.734233,78.1637269 152.168873,78.1246802 151.973921,78.1051569 L151.973921,78.1051569 L146.827191,77.8708765 L143.113357,78.0758718 C142.996386,78.0368251 142.762443,78.0173017 142.41153,78.0173017 C142.060617,78.0173017 141.417275,78.1197994 140.481506,78.3247947 C139.545737,78.52979 138.824415,78.6713343 138.31754,78.7494278 C133.326771,79.3936987 129.720161,80.7798573 127.497709,82.9079036 C125.723647,84.6259593 124.836616,87.0566177 124.836616,90.1998788 C124.836616,93.7140837 126.308503,96.3887842 129.252277,98.2239801 C129.856627,98.5949239 130.568202,98.9365827 131.387,99.2489565 C132.205798,99.5613303 132.970984,99.8102531 133.682559,99.9957251 C134.394133,100.181197 135.212931,100.361788 136.138953,100.537498 C137.064974,100.713209 137.874024,100.844991 138.566104,100.932846 C139.258183,101.020701 140.06236,101.12808 140.978634,101.254982 C141.894907,101.381884 142.586987,101.484381 143.054871,101.562475 C143.522756,101.640568 144.244078,101.718662 145.218837,101.796755 C146.193597,101.874849 146.988026,101.967584 147.602124,102.074963 C148.216223,102.182341 148.883933,102.353171 149.605255,102.587451 C150.326577,102.821732 150.872443,103.178033 151.242851,103.656355 C151.61326,104.134678 151.798464,104.73014 151.798464,105.442743 C151.798464,106.155345 151.467046,106.736165 150.804209,107.185203 C150.141373,107.63424 149.234847,107.858759 148.08463,107.858759 C146.934414,107.858759 145.920664,107.585432 145.043381,107.038777 C144.166097,106.492123 143.727455,105.789282 143.727455,104.930254 C143.727455,104.656927 143.737203,104.461694 143.756698,104.344554 C142.138597,104.344554 139.765058,104.359196 136.63608,104.388481 C133.507102,104.417766 131.026339,104.432409 129.193791,104.432409 C127.361243,104.432409 125.928347,104.393362 124.895101,104.315269 C124.914597,108.825165 128.599188,111.987949 135.948874,113.803622 L135.948874,113.803622 L135.948874,113.774337 C139.399523,114.750505 142.635725,115.238589 145.657479,115.238589 L145.657479,115.238589 L145.97915,115.209304 L148.113873,115.209304 L148.844943,115.238589 Z"></path>
            </g>
        </g>
    </g>
</svg>